<mxfile host="app.diagrams.net" agent="Mozilla/5.0 (X11; Linux x86_64; rv:136.0) Gecko/20100101 Firefox/136.0" version="26.2.14">
  <diagram name="Page-1" id="ZUTDrcXQG3WzsZaQFEPb">
    <mxGraphModel dx="818" dy="528" grid="1" gridSize="10" guides="1" tooltips="1" connect="1" arrows="1" fold="1" page="1" pageScale="1" pageWidth="850" pageHeight="1100" math="0" shadow="0">
      <root>
        <mxCell id="0" />
        <mxCell id="1" parent="0" />
        <mxCell id="kF2uQDn-YzheYI1gUQzw-3" value="" style="edgeStyle=orthogonalEdgeStyle;rounded=0;orthogonalLoop=1;jettySize=auto;html=1;" parent="1" source="kF2uQDn-YzheYI1gUQzw-1" target="kF2uQDn-YzheYI1gUQzw-2" edge="1">
          <mxGeometry relative="1" as="geometry" />
        </mxCell>
        <mxCell id="kF2uQDn-YzheYI1gUQzw-1" value="Add worms * 5 to the points count" style="rounded=0;whiteSpace=wrap;html=1;" parent="1" vertex="1">
          <mxGeometry x="60" y="60" width="170" height="80" as="geometry" />
        </mxCell>
        <mxCell id="kF2uQDn-YzheYI1gUQzw-6" value="Yes" style="edgeStyle=orthogonalEdgeStyle;rounded=0;orthogonalLoop=1;jettySize=auto;html=1;" parent="1" source="kF2uQDn-YzheYI1gUQzw-2" target="kF2uQDn-YzheYI1gUQzw-5" edge="1">
          <mxGeometry relative="1" as="geometry" />
        </mxCell>
        <mxCell id="kF2uQDn-YzheYI1gUQzw-9" value="No" style="edgeStyle=orthogonalEdgeStyle;rounded=0;orthogonalLoop=1;jettySize=auto;html=1;" parent="1" source="kF2uQDn-YzheYI1gUQzw-2" target="kF2uQDn-YzheYI1gUQzw-8" edge="1">
          <mxGeometry relative="1" as="geometry" />
        </mxCell>
        <mxCell id="kF2uQDn-YzheYI1gUQzw-2" value="10 or more worms?" style="rhombus;whiteSpace=wrap;html=1;rounded=0;" parent="1" vertex="1">
          <mxGeometry x="355" y="60" width="80" height="80" as="geometry" />
        </mxCell>
        <mxCell id="kF2uQDn-YzheYI1gUQzw-11" value="" style="edgeStyle=orthogonalEdgeStyle;rounded=0;orthogonalLoop=1;jettySize=auto;html=1;" parent="1" source="kF2uQDn-YzheYI1gUQzw-5" target="kF2uQDn-YzheYI1gUQzw-10" edge="1">
          <mxGeometry relative="1" as="geometry" />
        </mxCell>
        <mxCell id="kF2uQDn-YzheYI1gUQzw-5" value="Add spiders * 10 to the points count" style="whiteSpace=wrap;html=1;rounded=0;" parent="1" vertex="1">
          <mxGeometry x="630" y="70" width="120" height="60" as="geometry" />
        </mxCell>
        <mxCell id="kF2uQDn-YzheYI1gUQzw-8" value="Return number of points" style="whiteSpace=wrap;html=1;rounded=0;" parent="1" vertex="1">
          <mxGeometry x="335" y="410" width="120" height="60" as="geometry" />
        </mxCell>
        <mxCell id="kF2uQDn-YzheYI1gUQzw-13" value="Yes" style="edgeStyle=orthogonalEdgeStyle;rounded=0;orthogonalLoop=1;jettySize=auto;html=1;" parent="1" source="kF2uQDn-YzheYI1gUQzw-10" target="kF2uQDn-YzheYI1gUQzw-12" edge="1">
          <mxGeometry relative="1" as="geometry" />
        </mxCell>
        <mxCell id="kF2uQDn-YzheYI1gUQzw-15" style="edgeStyle=orthogonalEdgeStyle;rounded=0;orthogonalLoop=1;jettySize=auto;html=1;" parent="1" source="kF2uQDn-YzheYI1gUQzw-10" target="kF2uQDn-YzheYI1gUQzw-8" edge="1">
          <mxGeometry relative="1" as="geometry" />
        </mxCell>
        <mxCell id="kF2uQDn-YzheYI1gUQzw-10" value="5 or more spiders?" style="rhombus;whiteSpace=wrap;html=1;rounded=0;" parent="1" vertex="1">
          <mxGeometry x="650" y="200" width="80" height="80" as="geometry" />
        </mxCell>
        <mxCell id="kF2uQDn-YzheYI1gUQzw-16" style="edgeStyle=orthogonalEdgeStyle;rounded=0;orthogonalLoop=1;jettySize=auto;html=1;" parent="1" source="kF2uQDn-YzheYI1gUQzw-12" target="kF2uQDn-YzheYI1gUQzw-8" edge="1">
          <mxGeometry relative="1" as="geometry" />
        </mxCell>
        <mxCell id="kF2uQDn-YzheYI1gUQzw-12" value="Add butterflies * 25 to the points count" style="whiteSpace=wrap;html=1;rounded=0;" parent="1" vertex="1">
          <mxGeometry x="630" y="370" width="120" height="60" as="geometry" />
        </mxCell>
        <mxCell id="wlA2ypPNjkdhb9OlW4RC-1" value="Billy" style="shape=umlActor;verticalLabelPosition=bottom;verticalAlign=top;html=1;outlineConnect=0;" vertex="1" parent="1">
          <mxGeometry x="80" y="220" width="30" height="60" as="geometry" />
        </mxCell>
        <mxCell id="wlA2ypPNjkdhb9OlW4RC-7" value="Points Count" style="swimlane;whiteSpace=wrap;html=1;" vertex="1" parent="1">
          <mxGeometry x="50" y="400" width="90" height="80" as="geometry">
            <mxRectangle x="140" y="220" width="110" height="30" as="alternateBounds" />
          </mxGeometry>
        </mxCell>
        <mxCell id="wlA2ypPNjkdhb9OlW4RC-12" value="0" style="text;html=1;align=center;verticalAlign=middle;whiteSpace=wrap;rounded=0;fontSize=24;fontStyle=1" vertex="1" parent="wlA2ypPNjkdhb9OlW4RC-7">
          <mxGeometry x="10" y="25" width="70" height="55" as="geometry" />
        </mxCell>
        <mxCell id="wlA2ypPNjkdhb9OlW4RC-8" value="List" style="swimlane;fontStyle=0;childLayout=stackLayout;horizontal=1;startSize=30;horizontalStack=0;resizeParent=1;resizeParentMax=0;resizeLast=0;collapsible=1;marginBottom=0;whiteSpace=wrap;html=1;" vertex="1" parent="1">
          <mxGeometry x="160" y="400" width="140" height="120" as="geometry" />
        </mxCell>
        <mxCell id="wlA2ypPNjkdhb9OlW4RC-9" value="0 worms" style="text;strokeColor=none;fillColor=none;align=left;verticalAlign=middle;spacingLeft=4;spacingRight=4;overflow=hidden;points=[[0,0.5],[1,0.5]];portConstraint=eastwest;rotatable=0;whiteSpace=wrap;html=1;" vertex="1" parent="wlA2ypPNjkdhb9OlW4RC-8">
          <mxGeometry y="30" width="140" height="30" as="geometry" />
        </mxCell>
        <mxCell id="wlA2ypPNjkdhb9OlW4RC-10" value="-1 spiders" style="text;strokeColor=none;fillColor=none;align=left;verticalAlign=middle;spacingLeft=4;spacingRight=4;overflow=hidden;points=[[0,0.5],[1,0.5]];portConstraint=eastwest;rotatable=0;whiteSpace=wrap;html=1;" vertex="1" parent="wlA2ypPNjkdhb9OlW4RC-8">
          <mxGeometry y="60" width="140" height="30" as="geometry" />
        </mxCell>
        <mxCell id="wlA2ypPNjkdhb9OlW4RC-11" value="1000 butterflies" style="text;strokeColor=none;fillColor=none;align=left;verticalAlign=middle;spacingLeft=4;spacingRight=4;overflow=hidden;points=[[0,0.5],[1,0.5]];portConstraint=eastwest;rotatable=0;whiteSpace=wrap;html=1;" vertex="1" parent="wlA2ypPNjkdhb9OlW4RC-8">
          <mxGeometry y="90" width="140" height="30" as="geometry" />
        </mxCell>
        <mxCell id="wlA2ypPNjkdhb9OlW4RC-13" value="295" style="text;html=1;align=center;verticalAlign=middle;whiteSpace=wrap;rounded=0;fontSize=24;fontStyle=1" vertex="1" parent="1">
          <mxGeometry x="60" y="300" width="70" height="55" as="geometry" />
        </mxCell>
        <mxCell id="wlA2ypPNjkdhb9OlW4RC-15" value="Edward" style="shape=umlActor;verticalLabelPosition=bottom;verticalAlign=top;html=1;outlineConnect=0;" vertex="1" parent="1">
          <mxGeometry x="180" y="220" width="30" height="60" as="geometry" />
        </mxCell>
        <mxCell id="wlA2ypPNjkdhb9OlW4RC-17" value="495" style="text;html=1;align=center;verticalAlign=middle;whiteSpace=wrap;rounded=0;fontSize=24;fontStyle=1" vertex="1" parent="1">
          <mxGeometry x="160" y="300" width="70" height="55" as="geometry" />
        </mxCell>
        <mxCell id="wlA2ypPNjkdhb9OlW4RC-19" value="Foolish Tom" style="shape=umlActor;verticalLabelPosition=bottom;verticalAlign=top;html=1;outlineConnect=0;" vertex="1" parent="1">
          <mxGeometry x="280" y="220" width="30" height="60" as="geometry" />
        </mxCell>
        <mxCell id="wlA2ypPNjkdhb9OlW4RC-24" value="0" style="text;html=1;align=center;verticalAlign=middle;whiteSpace=wrap;rounded=0;fontSize=24;fontStyle=1" vertex="1" parent="1">
          <mxGeometry x="260" y="300" width="70" height="55" as="geometry" />
        </mxCell>
      </root>
    </mxGraphModel>
  </diagram>
</mxfile>
